<svg width="48" height="48" viewBox="0 0 48 48" fill="none" xmlns="http://www.w3.org/2000/svg">
<path fill-rule="evenodd" clip-rule="evenodd" d="M20 8C15.5817 8 12 11.5817 12 16C12 20.4183 15.5817 24 20 24C24.4183 24 28 20.4183 28 16C28 11.5817 24.4183 8 20 8ZM8 16C8 9.37258 13.3726 4 20 4C26.6274 4 32 9.37258 32 16C32 22.6274 26.6274 28 20 28C13.3726 28 8 22.6274 8 16ZM38 22C39.1046 22 40 22.8954 40 24V26H42C43.1046 26 44 26.8954 44 28C44 29.1046 43.1046 30 42 30H40V32C40 33.1046 39.1046 34 38 34C36.8954 34 36 33.1046 36 32V30H34C32.8954 30 32 29.1046 32 28C32 26.8954 32.8954 26 34 26H36V24C36 22.8954 36.8954 22 38 22ZM13 36C10.4811 36 8 38.4271 8 42C8 43.1046 7.10457 44 6 44C4.89543 44 4 43.1046 4 42C4 36.7364 7.78693 32 13 32H27C32.2131 32 36 36.7364 36 42C36 43.1046 35.1046 44 34 44C32.8954 44 32 43.1046 32 42C32 38.4271 29.5189 36 27 36H13Z" fill="white"/>
</svg>
