<svg width="48" height="48" viewBox="0 0 48 48" fill="none" xmlns="http://www.w3.org/2000/svg">
<path fill-rule="evenodd" clip-rule="evenodd" d="M22 8C17.5816 8 14 11.5817 14 16C14 16.0648 14.0009 16.1325 14.0026 16.2045C14.0244 17.1345 13.402 17.9568 12.5009 18.1883C9.91153 18.8537 8 21.2062 8 24C8 27.3137 10.6863 30 14 30H16C17.1046 30 18 30.8954 18 32C18 33.1046 17.1046 34 16 34H14C8.47723 34 4 29.5229 4 24C4 19.8749 6.4964 16.3369 10.0585 14.8075C10.6571 8.73991 15.7749 4 22 4C26.4471 4 30.3257 6.41867 32.398 10.0065C38.8413 10.2165 44 15.5058 44 22C44 28.6274 38.6275 34 32 34C30.8954 34 30 33.1046 30 32C30 30.8954 30.8954 30 32 30C36.4184 30 40 26.4183 40 22C40 17.5817 36.4184 14 32 14C31.7786 14 31.5599 14.0089 31.3437 14.0264C30.4899 14.0955 29.6868 13.6132 29.3468 12.827C28.1167 9.98347 25.2878 8 22 8ZM24 20C25.1046 20 26 20.8954 26 22L26 37.1716L26.5858 36.5858C27.3668 35.8047 28.6332 35.8047 29.4142 36.5858C30.1953 37.3668 30.1953 38.6332 29.4142 39.4142L25.4142 43.4142C25.0391 43.7893 24.5304 44 24 44C23.4696 44 22.9609 43.7893 22.5858 43.4142L18.5858 39.4142C17.8047 38.6332 17.8047 37.3668 18.5858 36.5858C19.3668 35.8047 20.6332 35.8047 21.4142 36.5858L22 37.1716L22 22C22 20.8954 22.8954 20 24 20Z" fill="white"/>
</svg>
