<svg width="41" height="41" viewBox="0 0 41 41" fill="none" xmlns="http://www.w3.org/2000/svg">
<path fill-rule="evenodd" clip-rule="evenodd" d="M4.30505 4C3.69444 8.2222 3.09262 19.6252 12.0532 28.5858C21.0138 37.5464 32.4168 36.9446 36.639 36.334V27.6943L27.7673 26.2156L26.4279 28.8944C26.0891 29.572 25.3965 30 24.639 30V28C24.639 30 24.638 30 24.637 30L24.6349 30L24.6304 30L24.6203 29.9999L24.5957 29.9996C24.5772 29.9993 24.5548 29.9988 24.5286 29.998C24.4762 29.9963 24.4084 29.9932 24.3263 29.9878C24.1621 29.9768 23.9401 29.9562 23.6687 29.9174C23.1261 29.8399 22.3828 29.6894 21.5065 29.3974C19.7471 28.8109 17.4691 27.6585 15.2248 25.4142C12.9805 23.1699 11.8281 20.8919 11.2416 19.1325C10.9496 18.2562 10.7991 17.5129 10.7216 16.9703C10.6828 16.6989 10.6622 16.4769 10.6512 16.3127C10.6458 16.2306 10.6427 16.1628 10.641 16.1104C10.6402 16.0842 10.6397 16.0618 10.6394 16.0433L10.6391 16.0187L10.639 16.0086L10.639 16.0041L10.639 16.002C10.639 16.001 10.639 16 12.639 16H10.639C10.639 15.3313 10.9732 14.7068 11.5296 14.3359L16.1794 11.2361L13.2849 4H4.30505ZM14.7863 16.9722L18.3982 14.5643C19.972 13.515 20.5958 11.5068 19.8933 9.7505L16.9988 2.51444C16.3914 0.995804 14.9206 0 13.2849 0H4.20055C2.38353 0 0.673176 1.26232 0.374887 3.2338C-0.303733 7.719 -1.22743 20.962 9.22479 31.4142C19.677 41.8664 32.92 40.9427 37.4052 40.2641C39.3767 39.9658 40.639 38.2555 40.639 36.4384V27.6943C40.639 25.7389 39.2253 24.0701 37.2966 23.7487L28.4248 22.2701C26.6927 21.9814 24.9749 22.8561 24.1895 24.4268L23.4966 25.8128C23.2787 25.7593 23.0356 25.6907 22.7715 25.6026C21.5309 25.1891 19.8089 24.3415 18.0532 22.5858C16.2975 20.8301 15.4499 19.1081 15.0364 17.8675C14.9246 17.5323 14.8442 17.2309 14.7863 16.9722Z" fill="#5F54DD"/>
</svg>
