<svg width="50" height="50" viewBox="0 0 50 50" fill="none" xmlns="http://www.w3.org/2000/svg">
<path fill-rule="evenodd" clip-rule="evenodd" d="M44.999 24.8031C45.0065 25.5606 44.5853 26.2573 43.9111 26.6028L8.09007 44.9564C7.40341 45.3082 6.57561 45.2337 5.96283 44.7648C5.35004 44.296 5.06157 43.5166 5.22152 42.7618L8.95197 25.1581L4.87562 7.6312C4.70083 6.87971 4.9739 6.0947 5.57734 5.61392C6.18077 5.13314 7.00694 5.04233 7.7004 5.38056L43.8759 23.0252C44.5567 23.3573 44.9915 24.0456 44.999 24.8031ZM12.6246 27.122L10.0057 39.4804L34.5471 26.9061L12.6246 27.122ZM34.5077 22.9063L12.5852 23.1222L9.7235 10.8178L34.5077 22.9063Z" fill="white"/>
</svg>
